# xmcd CD database file
#
# Track frame offsets:
#	150
#	10985
#	22960
#	33355
#	42665
#	52805
#	66860
#	88760
#	100535
#	112735
#	122830
#	133030
#	145805
#	163410
#	176270
#	186085
#
# Disc length: 2659 seconds
#
# Revision: 0
# Processed by: cddbd v1.4PL0 Copyright (c) Steve Scherf et al.
# Submitted via: Feurio! 1.64 - http://www.feurio.com
#
DISCID=d00a6110
DTITLE=Various Artist - Country CD3 - Take me to the River
DYEAR=1900
DGENRE=Country
TTITLE0=Dave Dudley - My sunny overgrown Country town
TTITLE1=Wanda Jackson - What in the World's come over You
TTITLE2=Johnny Russell - Act naturally
TTITLE3=Jeannie C. Riley - The Girl most likely to
TTITLE4=Faron Young - Hello Walls
TTITLE5=Margo Smith - It only hearts for a little While
TTITLE6=John Denver - Sweet Surrender (live)
TTITLE7=Dolly Parton - Letter to Heaven
TTITLE8=Kenny Rogers - Ruben James
TTITLE9=Billy Jo Spears - Take me to the River
TTITLE10=Carl Perkins - Daddy sang Bass
TTITLE11=Lynn Anderson - Top of the World
TTITLE12=Marshall Tucker Band - Fire on the Mountain
TTITLE13=Merle Haggard - Kentucky Gambler
TTITLE14=Patsy Cline - Turn the Cards Slowly
TTITLE15=John Denver - Take me Home, Country Roads (live)
EXTD=
EXTT0=
EXTT1=
EXTT2=
EXTT3=
EXTT4=
EXTT5=
EXTT6=
EXTT7=
EXTT8=
EXTT9=
EXTT10=
EXTT11=
EXTT12=
EXTT13=
EXTT14=
EXTT15=
PLAYORDER=
